<svg width="232" height="124" viewBox="0 0 232 124" fill="none" xmlns="http://www.w3.org/2000/svg">
<path d="M232 104.97V123.56L147.59 122.91V104.15L0 113.36L148.25 95.92L232 104.97Z" fill="#B18C55"/>
<path d="M232 78.97V96.25L178.2 88.19V65.15L232 78.97Z" fill="#58595B"/>
<path d="M173.09 63.84V87.53L147.26 84.07L147.59 65.48L113.37 72.89V65.48L147.59 56.43L173.09 63.84Z" fill="#B18C55"/>
<path d="M109.09 74.37L0.33 98.06L108.92 67.29L109.09 74.37Z" fill="#808285"/>
<path d="M147.59 104.15L0 113.36L148.25 95.92" fill="#808285"/>
<path d="M166.9 47.98L157.65 43.46V0L166.9 7.24V47.98Z" fill="#3A3B3C"/>
<path d="M157.65 43.46L128.47 50.6V9.36L157.65 0V43.46Z" fill="#6E7073"/>
<path d="M107.68 47.62L118.21 52.64V40.98L107.68 34.74V47.62Z" fill="#3A3B3C"/>
<path d="M0.33 87.53L107.68 47.62V34.74L0.33 87.53Z" fill="#6E7073"/>
</svg>
