<svg width="232" height="195" viewBox="0 0 232 195" fill="none" xmlns="http://www.w3.org/2000/svg">
<path d="M30.56 159.11C30.56 161.55 29.71 163.5 28.01 164.94C26.5 166.24 24.57 166.89 22.21 166.89C19.45 166.89 17.3 165.91 15.77 163.96C14.6 162.45 14.02 160.67 14.02 158.6C14.02 156.82 14.47 155.29 15.36 154.01L18.01 153.44C17.05 154.95 16.58 156.57 16.58 158.32C16.58 160.1 17.13 161.57 18.24 162.72C19.28 163.78 20.61 164.31 22.22 164.31C24.09 164.31 25.53 163.77 26.55 162.68C27.4 161.77 27.83 160.58 27.83 159.11V148.47L30.57 147V159.11H30.56ZM22.21 146.71C21.17 146.71 20.65 146.18 20.65 145.12C20.65 144.08 21.17 143.56 22.21 143.56C23.23 143.56 23.74 144.08 23.74 145.12C23.74 146.18 23.23 146.71 22.21 146.71Z" fill="white"/>
<path d="M36.29 160.83V141.74L39.03 140.27V160.83H36.29Z" fill="white"/>
<path d="M54.65 158.25H56.75V160.83H54.33C53.25 160.83 52.31 160.62 51.53 160.19C51.34 162.29 50.61 163.97 49.33 165.23C48.16 166.38 46.7 166.95 44.93 166.95C43.66 166.95 42.41 166.63 41.2 165.99V163.6C42.28 164.19 43.37 164.49 44.45 164.49C45.81 164.49 46.87 164.03 47.64 163.12C48.4 162.21 48.79 160.94 48.79 159.33V148.46L51.53 146.99V147.02L51.56 146.99V155.69C51.75 157.4 52.78 158.25 54.65 158.25Z" fill="white"/>
<path d="M75.37 158.25H77.51V160.83H75.09C73.33 160.83 71.93 160.27 70.91 159.14C69.83 160.69 68.24 161.47 66.16 161.47C64.08 161.47 62.51 160.71 61.44 159.18C60.44 160.29 59.05 160.84 57.27 160.84H54.85V158.26H56.95C59.03 158.26 60.07 157.2 60.07 155.07V154.02C60.07 151.55 60.68 149.66 61.89 148.35C62.95 147.18 64.38 146.6 66.16 146.6C68.2 146.6 69.77 147.35 70.88 148.86C71.81 150.16 72.28 151.88 72.28 154.02V155.07C72.27 157.19 73.3 158.25 75.37 158.25ZM66.15 158.89C67.19 158.89 68.01 158.46 68.62 157.58C69.23 156.71 69.53 155.51 69.53 153.98C69.53 150.75 68.4 149.14 66.15 149.14C63.92 149.14 62.8 150.75 62.8 153.98C62.81 157.25 63.92 158.89 66.15 158.89Z" fill="white"/>
<path d="M99.74 158.25V160.83H91.07C89.92 160.83 88.79 160.61 87.66 160.16C86.53 160.61 85.39 160.83 84.22 160.83H75.58V158.25H84.45C82.92 157 81.35 155.16 79.73 152.74V151.34C80.75 149.87 81.97 148.72 83.38 147.87C84.79 147.02 86.21 146.59 87.63 146.59C89.05 146.59 90.48 147.02 91.9 147.88C93.32 148.74 94.56 149.92 95.6 151.4V152.74C93.99 155.16 92.4 157 90.85 158.25H99.74ZM82.28 152.07C84.23 154.75 86.03 156.51 87.67 157.36C89.31 156.49 91.1 154.71 93.06 152.04C91.47 150.11 89.66 149.13 87.64 149.11C85.62 149.1 83.83 150.09 82.28 152.07Z" fill="white"/>
<path d="M97.83 160.83V158.25H99.52C101.73 158.25 102.83 157.09 102.83 154.78V141.75L105.6 140.28V154.81C105.6 156.7 105.04 158.2 103.91 159.3C102.85 160.32 101.46 160.83 99.73 160.83H97.83Z" fill="white"/>
<path d="M111.35 160.83V141.74L114.09 140.27V160.83H111.35Z" fill="white"/>
<path d="M132.57 160.83C130.85 160.83 129.5 160.26 128.52 159.11C127.67 158.11 127.25 156.81 127.25 155.19V151.33L129.99 149.86V154.93C129.99 157.14 131.02 158.24 133.08 158.24H143.66C145.72 158.24 146.75 157.14 146.75 154.93V148.46L149.49 146.99V155.18C149.49 157.03 148.93 158.46 147.8 159.48C146.8 160.37 145.52 160.82 143.94 160.82H132.57V160.83ZM137.83 167.17C136.79 167.17 136.27 166.64 136.27 165.58C136.27 164.54 136.79 164.02 137.83 164.02C138.85 164.02 139.36 164.54 139.36 165.58C139.36 166.64 138.85 167.17 137.83 167.17Z" fill="white"/>
<path d="M170.11 158.25V160.83H166.16C166.07 162.66 165.29 164.17 163.8 165.36C162.55 166.34 161.12 166.83 159.53 166.83C158.21 166.83 156.97 166.52 155.8 165.91V163.49C156.93 164.09 158.04 164.38 159.15 164.38C160.28 164.38 161.26 164.03 162.1 163.33C162.94 162.63 163.37 161.79 163.39 160.81C162.29 160.77 161.47 160.73 160.94 160.68C158.65 160.55 156.91 159.78 155.74 158.35C154.76 157.16 154.27 155.62 154.27 153.73C154.27 151.41 154.89 149.61 156.12 148.31C157.22 147.16 158.68 146.59 160.49 146.59C162.38 146.59 163.84 147.15 164.86 148.28C165.73 149.28 166.17 150.59 166.17 152.2V158.26H170.11V158.25ZM163.39 152.39C163.39 150.22 162.42 149.14 160.49 149.14C159.39 149.14 158.52 149.54 157.91 150.34C157.29 151.14 156.99 152.25 156.99 153.67C156.99 156.45 158.35 157.93 161.07 158.1C161.58 158.16 162.36 158.22 163.4 158.26V152.39H163.39Z" fill="white"/>
<path d="M179.07 158.25H181.17V160.83H178.75C176.92 160.83 175.51 160.25 174.51 159.08C173.45 160.25 171.98 160.83 170.11 160.83H168.2V158.25H169.89C172.1 158.25 173.2 157.09 173.2 154.78V141.75L175.97 140.28V154.81C175.97 156.04 176.21 156.92 176.69 157.46C177.17 157.98 177.97 158.25 179.07 158.25Z" fill="white"/>
<path d="M179.26 160.83V158.25H182.13C184.19 158.25 185.22 157.19 185.22 155.06V150.6L187.96 149.13V155.06C187.96 157.18 189 158.25 191.08 158.25H192.55C194.63 158.25 195.67 157.19 195.67 155.06V149.51L198.41 148.08V155.06C198.41 157.18 199.44 158.25 201.5 158.25H203C205.08 158.25 206.12 157.19 206.12 155.06V148.46L208.86 146.99V155.15C208.86 156.96 208.32 158.37 207.23 159.39C206.27 160.32 205 160.8 203.41 160.82H201.21C199.34 160.82 197.95 160.19 197.03 158.94C196.12 160.17 194.76 160.8 192.95 160.82H190.75C188.92 160.82 187.53 160.19 186.58 158.94C185.67 160.19 184.27 160.82 182.4 160.82H179.26V160.83Z" fill="white"/>
<path d="M212.91 139.83L213.64 138.46H214.5C214.29 138.08 214.18 137.69 214.18 137.28C214.18 136.64 214.41 136.1 214.88 135.64C215.35 135.18 215.9 134.95 216.54 134.95C217.07 134.95 217.58 135.12 218.07 135.46V136.86C217.6 136.5 217.16 136.32 216.73 136.32C215.94 136.32 215.55 136.67 215.55 137.37C215.55 137.73 215.7 138.09 216 138.45H218.9L218.17 139.82H212.91V139.83ZM214.61 160.83V143.01L217.35 141.54V160.82H214.61V160.83Z" fill="white"/>
<path d="M29.69 185.64C29.69 191.82 27.1 194.91 21.92 194.91C16.74 194.91 14.15 191.82 14.15 185.64V173.32H17.3V186.34C17.3 190.27 18.84 192.23 21.92 192.23C25 192.23 26.54 190.27 26.54 186.34V173.32H29.69V185.64Z" fill="white"/>
<path d="M43.59 182.06C42.47 181.43 41.25 181.12 39.91 181.12C39.17 181.12 38.58 181.29 38.14 181.64C37.69 181.99 37.47 182.45 37.47 183.03C37.47 183.68 37.68 184.17 38.09 184.52C38.5 184.87 39.28 185.2 40.42 185.51C42.14 186 43.33 186.53 44 187.08C44.92 187.86 45.37 188.97 45.37 190.39C45.37 191.75 44.87 192.85 43.88 193.67C42.89 194.5 41.57 194.91 39.95 194.91C37.79 194.91 35.91 194.31 34.33 193.1L35.33 191.49C36.58 192.27 37.97 192.66 39.52 192.66C41.57 192.66 42.6 191.88 42.6 190.32C42.6 189.65 42.38 189.14 41.95 188.8C41.51 188.46 40.68 188.13 39.46 187.81C36.2 187.01 34.57 185.43 34.57 183.09C34.57 181.89 35.06 180.89 36.03 180.09C37 179.3 38.22 178.9 39.7 178.9C41.58 178.9 43.22 179.42 44.62 180.47L43.59 182.06Z" fill="white"/>
<path d="M52.46 172.92V194.51H49.58V174.46L52.46 172.92Z" fill="white"/>
<path d="M67.46 179.31H70.34V194.51H68.13L67.9 192.77H67.7C67.19 193.39 66.49 193.91 65.61 194.31C64.73 194.71 63.86 194.91 63.02 194.91C59.47 194.91 57.7 192.75 57.7 188.42V179.31H60.58V187.78C60.58 190.88 61.7 192.43 63.93 192.43C64.58 192.43 65.25 192.26 65.94 191.93C66.63 191.59 67.14 191.19 67.48 190.73V179.31H67.46Z" fill="white"/>
<path d="M77.8 194.51H75.56V174.46L78.44 172.92V180.92C79.44 179.58 80.88 178.91 82.76 178.91C85.01 178.91 86.79 179.74 88.08 181.39C89.17 182.77 89.72 184.52 89.72 186.61C89.72 189.38 88.92 191.52 87.31 193.04C86.02 194.29 84.44 194.91 82.59 194.91C81.7 194.91 80.82 194.71 79.95 194.32C79.08 193.93 78.48 193.47 78.14 192.93L77.8 194.51ZM78.44 184.1V190.13C78.6 190.82 79.03 191.42 79.75 191.94C80.46 192.45 81.23 192.71 82.06 192.71C83.42 192.71 84.53 192.17 85.37 191.1C86.22 190.03 86.64 188.65 86.64 186.95C86.64 185.01 86.19 183.52 85.3 182.5C84.52 181.61 83.51 181.16 82.29 181.16C81.44 181.16 80.65 181.44 79.91 182C79.17 182.56 78.68 183.25 78.44 184.1Z" fill="white"/>
<path d="M107.29 173.32H110.24L117.91 194.51H114.73L113.12 189.72H104.45L102.81 194.51H99.63L107.29 173.32ZM108.77 177.07L105.32 187.15H112.22L108.77 177.07Z" fill="white"/>
<path d="M123.9 172.92V194.51H121.02V174.46L123.9 172.92Z" fill="white"/>
<path d="M135.55 194.91C133.25 194.91 131.39 194.05 129.96 192.33C128.73 190.86 128.12 189.06 128.12 186.94C128.12 184.49 128.87 182.5 130.36 180.98C131.7 179.6 133.42 178.9 135.52 178.9C137.93 178.9 139.83 179.78 141.21 181.54C142.35 183.01 142.92 184.81 142.92 186.93C142.92 189.36 142.14 191.35 140.58 192.89C139.19 194.24 137.51 194.91 135.55 194.91ZM135.48 192.64C136.82 192.64 137.88 192.13 138.68 191.1C139.47 190.07 139.87 188.69 139.87 186.95C139.87 185.14 139.45 183.7 138.6 182.63C137.82 181.63 136.79 181.12 135.52 181.12C134.23 181.12 133.18 181.66 132.37 182.73C131.57 183.8 131.17 185.21 131.17 186.95C131.17 188.82 131.62 190.28 132.51 191.3C133.28 192.19 134.28 192.64 135.48 192.64Z" fill="white"/>
<path d="M149.81 180.82H149.98C151.12 179.55 152.69 178.91 154.7 178.91C157.22 178.91 158.86 179.81 159.62 181.62C160.91 179.81 162.75 178.91 165.14 178.91C168.8 178.91 170.63 181.08 170.63 185.41V194.52H167.75V186.05C167.75 184.38 167.45 183.18 166.86 182.47C166.27 181.76 165.28 181.4 163.9 181.4C162.52 181.4 161.26 182.01 160.12 183.24C160.25 183.87 160.32 184.59 160.32 185.42V194.53H157.44V185.83C157.44 184.29 157.13 183.17 156.52 182.47C155.91 181.77 154.92 181.42 153.56 181.42C152.91 181.42 152.24 181.59 151.55 181.92C150.86 182.25 150.34 182.66 150.01 183.12V194.54H147.13V179.34H149.54L149.81 180.82Z" fill="white"/>
<path d="M178.43 180.82H178.56C179.61 179.55 180.84 178.91 182.24 178.91C184.03 178.91 185.34 179.6 186.19 180.99L183.78 182.5C183.04 181.76 182.24 181.4 181.37 181.4C180.25 181.4 179.32 181.97 178.56 183.11V194.53H175.68V179.33H178.16L178.43 180.82Z" fill="white"/>
<path d="M200.16 194.51H197.92L197.59 192.94C196.39 194.26 194.75 194.92 192.7 194.92C191.14 194.92 189.9 194.49 189 193.63C188.1 192.77 187.64 191.6 187.64 190.13C187.64 188.46 188.33 187.17 189.7 186.26C191.07 185.36 193.02 184.9 195.54 184.9H197.31V184.73C197.31 182.41 196.14 181.25 193.79 181.25C192.3 181.25 190.9 181.73 189.61 182.69L188.74 181.15C190.48 179.66 192.48 178.91 194.73 178.91C198.35 178.91 200.15 181.06 200.15 185.37V194.51H200.16ZM197.28 186.84H195.81C192.37 186.84 190.65 187.87 190.65 189.92C190.65 190.77 190.9 191.44 191.4 191.93C191.9 192.42 192.58 192.67 193.43 192.67C194.28 192.67 195.07 192.45 195.81 192.02C196.55 191.58 197.04 191.03 197.28 190.36V186.84Z" fill="white"/>
<path d="M207.9 180.82H208.07C209.21 179.55 210.79 178.91 212.82 178.91C216.55 178.91 218.41 181.1 218.41 185.47V194.51H215.53V185.64C215.53 182.81 214.28 181.39 211.78 181.39C211.09 181.39 210.39 181.56 209.67 181.89C208.96 182.22 208.43 182.63 208.1 183.09V194.51H205.22V179.31H207.63L207.9 180.82Z" fill="white"/>
<path d="M232 104.97V123.56L147.59 122.91V104.15L0 113.36L148.25 95.92L232 104.97Z" fill="white"/>
<path d="M232 78.97V96.25L178.2 88.19V65.15L232 78.97Z" fill="white"/>
<path d="M173.09 63.84V87.53L147.26 84.07L147.59 65.48L113.37 72.89V65.48L147.59 56.43L173.09 63.84Z" fill="white"/>
<path d="M109.09 74.37L0.33 98.06L108.92 67.29L109.09 74.37Z" fill="white"/>
<path d="M147.59 104.15L0 113.36L148.25 95.92" fill="white"/>
<path d="M166.9 47.98L157.65 43.46V0L166.9 7.24V47.98Z" fill="white"/>
<path d="M157.65 43.46L128.47 50.6V9.36L157.65 0V43.46Z" fill="white"/>
<path d="M107.68 47.62L118.21 52.64V40.98L107.68 34.74V47.62Z" fill="white"/>
<path d="M0.33 87.53L107.68 47.62V34.74L0.33 87.53Z" fill="white"/>
</svg>
